<?xml version="1.0" standalone="no"?>
<!DOCTYPE svg PUBLIC "-//W3C//DTD SVG 20010904//EN"
 "http://www.w3.org/TR/2001/REC-SVG-20010904/DTD/svg10.dtd">
<svg version="1.0" xmlns="http://www.w3.org/2000/svg"
 width="40" height="40" viewBox="0 0 512.000000 512.000000"
 preserveAspectRatio="xMidYMid meet">

<g transform="translate(0.000000,512.000000) scale(0.100000,-0.100000)"
fill="#62CDFF" stroke="none">
<path d="M1925 4674 c-531 -53 -981 -214 -1327 -474 -195 -147 -383 -366 -472
-553 -165 -345 -150 -735 41 -1063 128 -217 334 -421 586 -578 88 -55 84 -40
62 -213 -47 -357 -176 -731 -354 -1027 -28 -46 -51 -88 -51 -94 0 -24 34 -18
132 22 299 122 605 330 853 581 102 102 249 278 305 364 l16 23 94 -13 c147
-21 612 -18 765 4 558 84 1006 282 1332 591 219 207 354 438 409 696 24 115
24 315 0 430 -136 642 -800 1142 -1701 1280 -109 17 -196 23 -395 25 -140 2
-273 1 -295 -1z m-488 -1269 c102 -30 177 -118 190 -222 23 -200 -194 -351
-374 -260 -163 83 -194 307 -58 425 73 64 153 83 242 57z m850 -17 c53 -25
116 -94 131 -146 28 -93 9 -190 -50 -256 -73 -84 -200 -113 -299 -69 -84 38
-159 150 -159 238 0 80 71 194 143 231 69 36 160 37 234 2z m810 -4 c190 -91
188 -366 -2 -460 -249 -121 -488 172 -319 393 27 36 99 82 147 94 47 12 115 1
174 -27z"/>
<path d="M4517 3103 c-8 -214 -45 -351 -148 -553 -283 -551 -963 -971 -1744
-1075 -66 -9 -142 -20 -170 -24 l-50 -8 105 -51 c189 -92 410 -156 644 -187
137 -18 421 -20 551 -4 103 13 79 27 190 -117 125 -162 311 -330 507 -458 98
-64 316 -172 366 -182 42 -8 41 3 -2 75 -96 159 -179 361 -227 547 -25 100
-59 303 -59 354 0 13 28 37 88 76 335 218 521 503 539 824 17 330 -166 651
-504 881 -40 27 -74 49 -76 49 -2 0 -7 -66 -10 -147z"/>
</g>
</svg>
