<?xml version="1.0" standalone="no"?>
<!DOCTYPE svg PUBLIC "-//W3C//DTD SVG 20010904//EN"
 "http://www.w3.org/TR/2001/REC-SVG-20010904/DTD/svg10.dtd">
<svg version="1.0" xmlns="http://www.w3.org/2000/svg"
 width="512.000000pt" height="512.000000pt" viewBox="0 0 512.000000 512.000000"
 preserveAspectRatio="xMidYMid meet">

<g transform="translate(0.000000,512.000000) scale(0.100000,-0.100000)"
fill="#62CDFF" stroke="none">
<path d="M4255 4670 c-11 -4 -273 -265 -582 -578 -529 -536 -563 -572 -563
-605 0 -26 7 -41 26 -56 57 -45 39 -61 627 527 301 301 549 548 551 550 2 2
46 -8 97 -22 91 -25 95 -28 166 -98 71 -71 75 -76 104 -172 l31 -99 -551 -551
c-591 -592 -575 -573 -530 -630 15 -20 29 -26 57 -26 36 0 60 23 615 578 362
362 577 585 577 597 0 24 -78 281 -95 315 -18 34 -185 196 -210 203 -62 19
-284 77 -291 76 -5 0 -18 -4 -29 -9z"/>
<path d="M3897 3813 c-291 -291 -533 -538 -538 -550 -20 -52 37 -113 90 -97
18 6 227 206 560 535 497 493 531 529 531 561 0 45 -34 78 -80 78 -32 0 -72
-37 -563 -527z"/>
<path d="M967 3984 c-149 -36 -266 -141 -309 -276 -17 -57 -18 -117 -18 -1122
0 -1157 -2 -1120 56 -1227 34 -62 123 -150 186 -184 102 -55 89 -55 930 -55
l776 0 366 -314 c201 -173 375 -317 386 -321 30 -9 75 12 89 41 7 17 11 119
11 309 l0 285 333 0 c357 0 397 5 480 53 104 62 189 182 217 307 14 67 13
1802 -1 1834 -16 35 -61 52 -98 36 -16 -6 -33 -19 -38 -28 -4 -10 -10 -426
-13 -927 l-5 -910 -27 -51 c-30 -57 -94 -119 -144 -140 -27 -11 -110 -14 -413
-14 -388 0 -420 -3 -438 -39 -4 -9 -10 -126 -13 -260 l-5 -244 -297 256 c-163
140 -307 262 -319 271 -21 14 -105 16 -829 16 l-806 0 -52 26 c-28 14 -71 48
-96 75 -81 90 -76 11 -76 1206 0 1029 1 1065 19 1101 26 50 75 97 130 125 l46
22 1115 5 c613 3 1122 9 1132 13 9 5 22 22 28 38 16 37 -1 82 -36 98 -40 18
-2190 14 -2267 -5z"/>
<path d="M2952 3356 c-21 -28 -182 -622 -182 -675 0 -48 64 -111 112 -111 19
0 176 36 349 80 337 85 349 90 349 152 0 32 -39 78 -66 78 -10 0 -141 -32
-292 -71 -151 -38 -276 -68 -278 -66 -2 2 30 130 72 285 71 267 74 283 60 311
-26 49 -91 58 -124 17z"/>
<path d="M1483 3188 c-12 -6 -27 -23 -34 -39 -15 -37 2 -82 37 -98 18 -8 192
-11 594 -11 402 0 576 3 594 11 35 16 52 61 37 98 -7 15 -24 33 -37 40 -34 15
-1159 14 -1191 -1z"/>
<path d="M1483 2788 c-12 -6 -27 -23 -34 -39 -15 -37 2 -82 37 -98 18 -8 182
-11 554 -11 372 0 536 3 554 11 35 16 52 61 37 98 -7 15 -24 33 -37 40 -34 15
-1079 14 -1111 -1z"/>
<path d="M1483 2388 c-12 -6 -27 -23 -34 -39 -15 -37 2 -82 37 -98 35 -16
2113 -16 2148 0 55 26 55 112 0 138 -34 15 -2119 15 -2151 -1z"/>
<path d="M1483 1988 c-12 -6 -27 -23 -34 -39 -15 -37 2 -82 37 -98 35 -16
2113 -16 2148 0 55 26 55 112 0 138 -34 15 -2119 15 -2151 -1z"/>
</g>
</svg>
